<mxfile host="app.diagrams.net" modified="2024-01-08T06:22:15.504Z" agent="Mozilla/5.0 (X11; Linux x86_64) AppleWebKit/537.36 (KHTML, like Gecko) Chrome/120.0.0.0 Safari/537.36" etag="xO8tCC4SxLKWu8NIKQe8" version="22.1.17" type="github">
  <diagram id="C5RBs43oDa-KdzZeNtuy" name="Page-1">
    <mxGraphModel dx="1077" dy="835" grid="1" gridSize="10" guides="1" tooltips="1" connect="1" arrows="1" fold="1" page="1" pageScale="1" pageWidth="827" pageHeight="1169" math="0" shadow="0">
      <root>
        <mxCell id="WIyWlLk6GJQsqaUBKTNV-0" />
        <mxCell id="WIyWlLk6GJQsqaUBKTNV-1" parent="WIyWlLk6GJQsqaUBKTNV-0" />
        <mxCell id="1aZwWp-F1r0LI08-kvLX-0" value="" style="rounded=0;html=1;jettySize=auto;orthogonalLoop=1;fontSize=11;endArrow=block;endFill=0;endSize=8;strokeWidth=1;shadow=0;labelBackgroundColor=none;edgeStyle=orthogonalEdgeStyle;" edge="1" parent="WIyWlLk6GJQsqaUBKTNV-1" source="1aZwWp-F1r0LI08-kvLX-1">
          <mxGeometry relative="1" as="geometry">
            <mxPoint x="530" y="180" as="targetPoint" />
          </mxGeometry>
        </mxCell>
        <mxCell id="1aZwWp-F1r0LI08-kvLX-1" value="시작" style="rounded=1;whiteSpace=wrap;html=1;fontSize=12;glass=0;strokeWidth=1;shadow=0;" vertex="1" parent="WIyWlLk6GJQsqaUBKTNV-1">
          <mxGeometry x="470" y="90" width="120" height="40" as="geometry" />
        </mxCell>
        <mxCell id="1aZwWp-F1r0LI08-kvLX-6" value="" style="edgeStyle=none;curved=1;rounded=0;orthogonalLoop=1;jettySize=auto;html=1;fontSize=12;startSize=8;endSize=8;" edge="1" parent="WIyWlLk6GJQsqaUBKTNV-1" source="1aZwWp-F1r0LI08-kvLX-2" target="1aZwWp-F1r0LI08-kvLX-5">
          <mxGeometry relative="1" as="geometry" />
        </mxCell>
        <mxCell id="1aZwWp-F1r0LI08-kvLX-2" value="메인" style="rounded=1;whiteSpace=wrap;html=1;fontSize=12;glass=0;strokeWidth=1;shadow=0;" vertex="1" parent="WIyWlLk6GJQsqaUBKTNV-1">
          <mxGeometry x="470" y="180" width="120" height="40" as="geometry" />
        </mxCell>
        <mxCell id="1aZwWp-F1r0LI08-kvLX-8" value="" style="edgeStyle=orthogonalEdgeStyle;rounded=0;orthogonalLoop=1;jettySize=auto;html=1;fontSize=12;startSize=8;endSize=8;" edge="1" parent="WIyWlLk6GJQsqaUBKTNV-1" source="1aZwWp-F1r0LI08-kvLX-5" target="1aZwWp-F1r0LI08-kvLX-7">
          <mxGeometry relative="1" as="geometry" />
        </mxCell>
        <mxCell id="1aZwWp-F1r0LI08-kvLX-10" value="" style="edgeStyle=none;curved=1;rounded=0;orthogonalLoop=1;jettySize=auto;html=1;fontSize=12;startSize=8;endSize=8;" edge="1" parent="WIyWlLk6GJQsqaUBKTNV-1" source="1aZwWp-F1r0LI08-kvLX-5" target="1aZwWp-F1r0LI08-kvLX-9">
          <mxGeometry relative="1" as="geometry" />
        </mxCell>
        <mxCell id="1aZwWp-F1r0LI08-kvLX-12" value="" style="edgeStyle=orthogonalEdgeStyle;rounded=0;orthogonalLoop=1;jettySize=auto;html=1;fontSize=12;startSize=8;endSize=8;" edge="1" parent="WIyWlLk6GJQsqaUBKTNV-1" source="1aZwWp-F1r0LI08-kvLX-5" target="1aZwWp-F1r0LI08-kvLX-11">
          <mxGeometry relative="1" as="geometry" />
        </mxCell>
        <mxCell id="1aZwWp-F1r0LI08-kvLX-20" value="" style="edgeStyle=orthogonalEdgeStyle;rounded=0;orthogonalLoop=1;jettySize=auto;html=1;fontSize=12;startSize=8;endSize=8;" edge="1" parent="WIyWlLk6GJQsqaUBKTNV-1" source="1aZwWp-F1r0LI08-kvLX-5" target="1aZwWp-F1r0LI08-kvLX-19">
          <mxGeometry relative="1" as="geometry" />
        </mxCell>
        <mxCell id="1aZwWp-F1r0LI08-kvLX-5" value="" style="rhombus;whiteSpace=wrap;html=1;rounded=1;glass=0;strokeWidth=1;shadow=0;" vertex="1" parent="WIyWlLk6GJQsqaUBKTNV-1">
          <mxGeometry x="490" y="260" width="80" height="80" as="geometry" />
        </mxCell>
        <mxCell id="1aZwWp-F1r0LI08-kvLX-15" value="" style="edgeStyle=none;curved=1;rounded=0;orthogonalLoop=1;jettySize=auto;html=1;fontSize=12;startSize=8;endSize=8;" edge="1" parent="WIyWlLk6GJQsqaUBKTNV-1" source="1aZwWp-F1r0LI08-kvLX-7" target="1aZwWp-F1r0LI08-kvLX-9">
          <mxGeometry relative="1" as="geometry" />
        </mxCell>
        <mxCell id="1aZwWp-F1r0LI08-kvLX-7" value="회원가입" style="whiteSpace=wrap;html=1;rounded=1;glass=0;strokeWidth=1;shadow=0;" vertex="1" parent="WIyWlLk6GJQsqaUBKTNV-1">
          <mxGeometry x="300" y="375" width="120" height="60" as="geometry" />
        </mxCell>
        <mxCell id="1aZwWp-F1r0LI08-kvLX-14" value="" style="edgeStyle=none;curved=1;rounded=0;orthogonalLoop=1;jettySize=auto;html=1;fontSize=12;startSize=8;endSize=8;" edge="1" parent="WIyWlLk6GJQsqaUBKTNV-1" source="1aZwWp-F1r0LI08-kvLX-9" target="1aZwWp-F1r0LI08-kvLX-13">
          <mxGeometry relative="1" as="geometry" />
        </mxCell>
        <mxCell id="1aZwWp-F1r0LI08-kvLX-9" value="로그인" style="whiteSpace=wrap;html=1;rounded=1;glass=0;strokeWidth=1;shadow=0;" vertex="1" parent="WIyWlLk6GJQsqaUBKTNV-1">
          <mxGeometry x="470" y="375" width="120" height="60" as="geometry" />
        </mxCell>
        <mxCell id="1aZwWp-F1r0LI08-kvLX-11" value="id pw" style="whiteSpace=wrap;html=1;rounded=1;glass=0;strokeWidth=1;shadow=0;" vertex="1" parent="WIyWlLk6GJQsqaUBKTNV-1">
          <mxGeometry x="140" y="375" width="120" height="60" as="geometry" />
        </mxCell>
        <mxCell id="1aZwWp-F1r0LI08-kvLX-13" value="예매" style="whiteSpace=wrap;html=1;rounded=1;glass=0;strokeWidth=1;shadow=0;" vertex="1" parent="WIyWlLk6GJQsqaUBKTNV-1">
          <mxGeometry x="470" y="470" width="120" height="60" as="geometry" />
        </mxCell>
        <mxCell id="1aZwWp-F1r0LI08-kvLX-19" value="" style="whiteSpace=wrap;html=1;rounded=1;glass=0;strokeWidth=1;shadow=0;" vertex="1" parent="WIyWlLk6GJQsqaUBKTNV-1">
          <mxGeometry x="650" y="375" width="120" height="60" as="geometry" />
        </mxCell>
      </root>
    </mxGraphModel>
  </diagram>
</mxfile>
